<?xml version="1.0" encoding="UTF-8" standalone="no"?>
<!DOCTYPE svg PUBLIC "-//W3C//DTD SVG 1.1//EN"
 "http://www.w3.org/Graphics/SVG/1.1/DTD/svg11.dtd">
<!-- Generated by graphviz version 2.43.0 (0)
 -->
<!-- Title: %3 Pages: 1 -->
<svg width="463pt" height="419pt"
 viewBox="0.00 0.00 462.57 419.48" xmlns="http://www.w3.org/2000/svg" xmlns:xlink="http://www.w3.org/1999/xlink">
<g id="graph0" class="graph" transform="scale(1 1) rotate(0) translate(36 383.48)">
<title>%3</title>
<polygon fill="dimgray" stroke="transparent" points="-36,36 -36,-383.48 426.57,-383.48 426.57,36 -36,36"/>
<text text-anchor="middle" x="195.28" y="-332.28" font-family="Helvetica,sans-Serif" font-size="14.00">Sweep&#39;s Plan &amp; Progress</text>
<!-- start -->
<g id="node1" class="node">
<title>start</title>
</g>
<!-- 33329d8a&#45;0a03&#45;4958&#45;9994&#45;c2d55401d01c -->
<g id="node3" class="node">
<title>33329d8a&#45;0a03&#45;4958&#45;9994&#45;c2d55401d01c</title>
<ellipse fill="#0ee832" stroke="black" cx="226.07" cy="-281.61" rx="106.13" ry="26.74"/>
<text text-anchor="middle" x="226.07" y="-285.41" font-family="Helvetica,sans-Serif" font-size="14.00">✓ Create</text>
<text text-anchor="middle" x="226.07" y="-270.41" font-family="Helvetica,sans-Serif" font-size="14.00">tests/test_snake.py</text>
</g>
<!-- start&#45;&gt;33329d8a&#45;0a03&#45;4958&#45;9994&#45;c2d55401d01c -->
<g id="edge5" class="edge">
<title>start&#45;&gt;33329d8a&#45;0a03&#45;4958&#45;9994&#45;c2d55401d01c</title>
<path fill="none" stroke="black" d="M68.77,-281.61C72.29,-281.61 88.61,-281.61 109.5,-281.61"/>
<polygon fill="black" stroke="black" points="109.74,-285.11 119.74,-281.61 109.74,-278.11 109.74,-285.11"/>
<text text-anchor="middle" x="94.28" y="-288.41" font-family="Helvetica,sans-Serif" font-size="14.00">Start</text>
</g>
<!-- end -->
<g id="node2" class="node">
<title>end</title>
</g>
<!-- 33329d8a&#45;0a03&#45;4958&#45;9994&#45;c2d55401d01c&#45;&gt;end -->
<g id="edge6" class="edge">
<title>33329d8a&#45;0a03&#45;4958&#45;9994&#45;c2d55401d01c&#45;&gt;end</title>
<path fill="none" stroke="black" d="M332.25,-281.61C351.44,-281.61 368.7,-281.61 379.26,-281.61"/>
<polygon fill="black" stroke="black" points="379.39,-285.11 389.39,-281.61 379.39,-278.11 379.39,-285.11"/>
<text text-anchor="middle" x="360.85" y="-288.41" font-family="Helvetica,sans-Serif" font-size="14.00">Finish</text>
</g>
<!-- 8eebb297&#45;8a95&#45;4e12&#45;98e4&#45;193eb1a08ee1 -->
<g id="node4" class="node">
<title>8eebb297&#45;8a95&#45;4e12&#45;98e4&#45;193eb1a08ee1</title>
<polygon fill="#ee0000" stroke="black" points="181.07,-217.74 31.07,-217.74 31.07,-179.74 181.07,-179.74 181.07,-217.74"/>
<text text-anchor="middle" x="106.07" y="-202.54" font-family="Helvetica,sans-Serif" font-size="14.00">✗ Check</text>
<text text-anchor="middle" x="106.07" y="-187.54" font-family="Helvetica,sans-Serif" font-size="14.00">tests/test_snake.py</text>
</g>
<!-- 33329d8a&#45;0a03&#45;4958&#45;9994&#45;c2d55401d01c&#45;&gt;8eebb297&#45;8a95&#45;4e12&#45;98e4&#45;193eb1a08ee1 -->
<g id="edge1" class="edge">
<title>33329d8a&#45;0a03&#45;4958&#45;9994&#45;c2d55401d01c&#45;&gt;8eebb297&#45;8a95&#45;4e12&#45;98e4&#45;193eb1a08ee1</title>
<path fill="none" stroke="black" stroke-dasharray="5,2" d="M189.74,-256.13C174.51,-245.87 156.87,-233.98 141.72,-223.77"/>
<polygon fill="black" stroke="black" points="143.37,-220.66 133.12,-217.97 139.46,-226.47 143.37,-220.66"/>
</g>
<!-- b0941954&#45;c580&#45;472b&#45;a71d&#45;3a9c9b3ed155 -->
<g id="node5" class="node">
<title>b0941954&#45;c580&#45;472b&#45;a71d&#45;3a9c9b3ed155</title>
<polygon fill="yellow" stroke="black" points="349.07,-217.74 199.07,-217.74 199.07,-179.74 349.07,-179.74 349.07,-217.74"/>
<text text-anchor="middle" x="274.07" y="-202.54" font-family="Helvetica,sans-Serif" font-size="14.00">⋯ Check</text>
<text text-anchor="middle" x="274.07" y="-187.54" font-family="Helvetica,sans-Serif" font-size="14.00">tests/test_snake.py</text>
</g>
<!-- 33329d8a&#45;0a03&#45;4958&#45;9994&#45;c2d55401d01c&#45;&gt;b0941954&#45;c580&#45;472b&#45;a71d&#45;3a9c9b3ed155 -->
<g id="edge4" class="edge">
<title>33329d8a&#45;0a03&#45;4958&#45;9994&#45;c2d55401d01c&#45;&gt;b0941954&#45;c580&#45;472b&#45;a71d&#45;3a9c9b3ed155</title>
<path fill="none" stroke="black" stroke-dasharray="5,2" d="M241.52,-254.58C246.86,-245.57 252.86,-235.47 258.23,-226.42"/>
<polygon fill="black" stroke="black" points="261.26,-228.18 263.35,-217.79 255.24,-224.6 261.26,-228.18"/>
</g>
<!-- afe8b7f0&#45;dd0f&#45;4f8a&#45;a6c9&#45;55347f412a0e -->
<g id="node6" class="node">
<title>afe8b7f0&#45;dd0f&#45;4f8a&#45;a6c9&#45;55347f412a0e</title>
<ellipse fill="#0ee832" stroke="black" cx="106.07" cy="-101.87" rx="106.13" ry="26.74"/>
<text text-anchor="middle" x="106.07" y="-105.67" font-family="Helvetica,sans-Serif" font-size="14.00">✓ Modify</text>
<text text-anchor="middle" x="106.07" y="-90.67" font-family="Helvetica,sans-Serif" font-size="14.00">tests/test_snake.py</text>
</g>
<!-- 8eebb297&#45;8a95&#45;4e12&#45;98e4&#45;193eb1a08ee1&#45;&gt;afe8b7f0&#45;dd0f&#45;4f8a&#45;a6c9&#45;55347f412a0e -->
<g id="edge2" class="edge">
<title>8eebb297&#45;8a95&#45;4e12&#45;98e4&#45;193eb1a08ee1&#45;&gt;afe8b7f0&#45;dd0f&#45;4f8a&#45;a6c9&#45;55347f412a0e</title>
<path fill="none" stroke="black" d="M106.07,-179.45C106.07,-168.03 106.07,-152.95 106.07,-139.18"/>
<polygon fill="black" stroke="black" points="109.57,-139 106.07,-129 102.57,-139 109.57,-139"/>
<text text-anchor="middle" x="203.57" y="-150.54" font-family="Helvetica,sans-Serif" font-size="14.00">Additional changes required</text>
</g>
<!-- 35a04d56&#45;3885&#45;45a5&#45;96a8&#45;a03150251b05 -->
<g id="node7" class="node">
<title>35a04d56&#45;3885&#45;45a5&#45;96a8&#45;a03150251b05</title>
<polygon fill="#0ee832" stroke="black" points="181.07,-38 31.07,-38 31.07,0 181.07,0 181.07,-38"/>
<text text-anchor="middle" x="106.07" y="-22.8" font-family="Helvetica,sans-Serif" font-size="14.00">✓ Check</text>
<text text-anchor="middle" x="106.07" y="-7.8" font-family="Helvetica,sans-Serif" font-size="14.00">tests/test_snake.py</text>
</g>
<!-- afe8b7f0&#45;dd0f&#45;4f8a&#45;a6c9&#45;55347f412a0e&#45;&gt;35a04d56&#45;3885&#45;45a5&#45;96a8&#45;a03150251b05 -->
<g id="edge3" class="edge">
<title>afe8b7f0&#45;dd0f&#45;4f8a&#45;a6c9&#45;55347f412a0e&#45;&gt;35a04d56&#45;3885&#45;45a5&#45;96a8&#45;a03150251b05</title>
<path fill="none" stroke="black" stroke-dasharray="5,2" d="M106.07,-74.84C106.07,-66.3 106.07,-56.78 106.07,-48.1"/>
<polygon fill="black" stroke="black" points="109.57,-48.05 106.07,-38.05 102.57,-48.05 109.57,-48.05"/>
</g>
</g>
</svg>
