<?xml version="1.0" encoding="UTF-8" standalone="no"?>
<!DOCTYPE svg PUBLIC "-//W3C//DTD SVG 1.1//EN"
 "http://www.w3.org/Graphics/SVG/1.1/DTD/svg11.dtd">
<!-- Generated by graphviz version 2.43.0 (0)
 -->
<!-- Title: %3 Pages: 1 -->
<svg width="675pt" height="240pt"
 viewBox="0.00 0.00 675.00 239.74" xmlns="http://www.w3.org/2000/svg" xmlns:xlink="http://www.w3.org/1999/xlink">
<g id="graph0" class="graph" transform="scale(1 1) rotate(0) translate(36 203.74)">
<title>%3</title>
<polygon fill="dimgray" stroke="transparent" points="-36,36 -36,-203.74 639,-203.74 639,36 -36,36"/>
<text text-anchor="middle" x="301.5" y="-152.54" font-family="Helvetica,sans-Serif" font-size="14.00">Sweep&#39;s Plan &amp; Progress</text>
<!-- start -->
<g id="node1" class="node">
<title>start</title>
</g>
<!-- 03ffa7d1&#45;1a1c&#45;4252&#45;92f9&#45;c6a9fda08a23 -->
<g id="node3" class="node">
<title>03ffa7d1&#45;1a1c&#45;4252&#45;92f9&#45;c6a9fda08a23</title>
<ellipse fill="#0ee832" stroke="black" cx="187.5" cy="-101.87" rx="135.11" ry="26.74"/>
<text text-anchor="middle" x="187.5" y="-105.67" font-family="Helvetica,sans-Serif" font-size="14.00">✓ Modify</text>
<text text-anchor="middle" x="187.5" y="-90.67" font-family="Helvetica,sans-Serif" font-size="14.00">cli_snake_game/snake.py</text>
</g>
<!-- start&#45;&gt;03ffa7d1&#45;1a1c&#45;4252&#45;92f9&#45;c6a9fda08a23 -->
<g id="edge4" class="edge">
<title>start&#45;&gt;03ffa7d1&#45;1a1c&#45;4252&#45;92f9&#45;c6a9fda08a23</title>
<path fill="none" stroke="black" d="M1.04,-101.87C4.12,-101.87 20.21,-101.87 41.75,-101.87"/>
<polygon fill="black" stroke="black" points="42,-105.37 52,-101.87 42,-98.37 42,-105.37"/>
<text text-anchor="middle" x="26.72" y="-108.67" font-family="Helvetica,sans-Serif" font-size="14.00">Start</text>
</g>
<!-- end -->
<g id="node2" class="node">
<title>end</title>
</g>
<!-- 0a555970&#45;725b&#45;44a9&#45;8f50&#45;dba311810d85 -->
<g id="node4" class="node">
<title>0a555970&#45;725b&#45;44a9&#45;8f50&#45;dba311810d85</title>
<ellipse fill="white" stroke="black" cx="451.5" cy="-101.87" rx="93.18" ry="26.74"/>
<text text-anchor="middle" x="451.5" y="-105.67" font-family="Helvetica,sans-Serif" font-size="14.00">▶ Modify</text>
<text text-anchor="middle" x="451.5" y="-90.67" font-family="Helvetica,sans-Serif" font-size="14.00">requirements.txt</text>
</g>
<!-- 03ffa7d1&#45;1a1c&#45;4252&#45;92f9&#45;c6a9fda08a23&#45;&gt;0a555970&#45;725b&#45;44a9&#45;8f50&#45;dba311810d85 -->
<g id="edge2" class="edge">
<title>03ffa7d1&#45;1a1c&#45;4252&#45;92f9&#45;c6a9fda08a23&#45;&gt;0a555970&#45;725b&#45;44a9&#45;8f50&#45;dba311810d85</title>
<path fill="none" stroke="black" d="M322.59,-101.87C331.01,-101.87 339.42,-101.87 347.83,-101.87"/>
<polygon fill="black" stroke="black" points="348.09,-105.37 358.09,-101.87 348.09,-98.37 348.09,-105.37"/>
</g>
<!-- 1df7f419&#45;25ca&#45;426c&#45;b8e1&#45;205cda82642c -->
<g id="node5" class="node">
<title>1df7f419&#45;25ca&#45;426c&#45;b8e1&#45;205cda82642c</title>
<polygon fill="yellow" stroke="black" points="283,-38 92,-38 92,0 283,0 283,-38"/>
<text text-anchor="middle" x="187.5" y="-22.8" font-family="Helvetica,sans-Serif" font-size="14.00">⋯ Check</text>
<text text-anchor="middle" x="187.5" y="-7.8" font-family="Helvetica,sans-Serif" font-size="14.00">cli_snake_game/snake.py</text>
</g>
<!-- 03ffa7d1&#45;1a1c&#45;4252&#45;92f9&#45;c6a9fda08a23&#45;&gt;1df7f419&#45;25ca&#45;426c&#45;b8e1&#45;205cda82642c -->
<g id="edge1" class="edge">
<title>03ffa7d1&#45;1a1c&#45;4252&#45;92f9&#45;c6a9fda08a23&#45;&gt;1df7f419&#45;25ca&#45;426c&#45;b8e1&#45;205cda82642c</title>
<path fill="none" stroke="black" stroke-dasharray="5,2" d="M187.5,-74.84C187.5,-66.3 187.5,-56.78 187.5,-48.1"/>
<polygon fill="black" stroke="black" points="191,-48.05 187.5,-38.05 184,-48.05 191,-48.05"/>
</g>
<!-- 0a555970&#45;725b&#45;44a9&#45;8f50&#45;dba311810d85&#45;&gt;end -->
<g id="edge5" class="edge">
<title>0a555970&#45;725b&#45;44a9&#45;8f50&#45;dba311810d85&#45;&gt;end</title>
<path fill="none" stroke="black" d="M544.98,-101.87C563.79,-101.87 581.02,-101.87 591.62,-101.87"/>
<polygon fill="black" stroke="black" points="591.82,-105.37 601.82,-101.87 591.82,-98.37 591.82,-105.37"/>
<text text-anchor="middle" x="573.42" y="-108.67" font-family="Helvetica,sans-Serif" font-size="14.00">Finish</text>
</g>
<!-- d6c34d64&#45;b0f2&#45;44d7&#45;8f6e&#45;c8a1bbe92636 -->
<g id="node6" class="node">
<title>d6c34d64&#45;b0f2&#45;44d7&#45;8f6e&#45;c8a1bbe92636</title>
<polygon fill="white" stroke="black" points="517.5,-38 385.5,-38 385.5,0 517.5,0 517.5,-38"/>
<text text-anchor="middle" x="451.5" y="-22.8" font-family="Helvetica,sans-Serif" font-size="14.00">▶ Check</text>
<text text-anchor="middle" x="451.5" y="-7.8" font-family="Helvetica,sans-Serif" font-size="14.00">requirements.txt</text>
</g>
<!-- 0a555970&#45;725b&#45;44a9&#45;8f50&#45;dba311810d85&#45;&gt;d6c34d64&#45;b0f2&#45;44d7&#45;8f6e&#45;c8a1bbe92636 -->
<g id="edge3" class="edge">
<title>0a555970&#45;725b&#45;44a9&#45;8f50&#45;dba311810d85&#45;&gt;d6c34d64&#45;b0f2&#45;44d7&#45;8f6e&#45;c8a1bbe92636</title>
<path fill="none" stroke="black" stroke-dasharray="5,2" d="M451.5,-74.84C451.5,-66.3 451.5,-56.78 451.5,-48.1"/>
<polygon fill="black" stroke="black" points="455,-48.05 451.5,-38.05 448,-48.05 455,-48.05"/>
</g>
</g>
</svg>
