<?xml version="1.0" encoding="UTF-8" standalone="no"?>
<!DOCTYPE svg PUBLIC "-//W3C//DTD SVG 1.1//EN"
 "http://www.w3.org/Graphics/SVG/1.1/DTD/svg11.dtd">
<!-- Generated by graphviz version 2.43.0 (0)
 -->
<!-- Title: %3 Pages: 1 -->
<svg width="451pt" height="240pt"
 viewBox="0.00 0.00 451.00 239.74" xmlns="http://www.w3.org/2000/svg" xmlns:xlink="http://www.w3.org/1999/xlink">
<g id="graph0" class="graph" transform="scale(1 1) rotate(0) translate(36 203.74)">
<title>%3</title>
<polygon fill="dimgray" stroke="transparent" points="-36,36 -36,-203.74 415,-203.74 415,36 -36,36"/>
<text text-anchor="middle" x="189.5" y="-152.54" font-family="Helvetica,sans-Serif" font-size="14.00">Sweep&#39;s Plan &amp; Progress</text>
<!-- start -->
<g id="node1" class="node">
<title>start</title>
</g>
<!-- 32677b84&#45;ab9f&#45;469a&#45;b6e4&#45;9b0306c302b2 -->
<g id="node3" class="node">
<title>32677b84&#45;ab9f&#45;469a&#45;b6e4&#45;9b0306c302b2</title>
<ellipse fill="#0ee832" stroke="black" cx="186.5" cy="-101.87" rx="134.2" ry="26.74"/>
<text text-anchor="middle" x="186.5" y="-105.67" font-family="Helvetica,sans-Serif" font-size="14.00">✓ Modify</text>
<text text-anchor="middle" x="186.5" y="-90.67" font-family="Helvetica,sans-Serif" font-size="14.00">cli_snake_game/game.py</text>
</g>
<!-- start&#45;&gt;32677b84&#45;ab9f&#45;469a&#45;b6e4&#45;9b0306c302b2 -->
<g id="edge2" class="edge">
<title>start&#45;&gt;32677b84&#45;ab9f&#45;469a&#45;b6e4&#45;9b0306c302b2</title>
<path fill="none" stroke="black" d="M1.03,-101.87C4.1,-101.87 20.1,-101.87 41.53,-101.87"/>
<polygon fill="black" stroke="black" points="41.73,-105.37 51.73,-101.87 41.73,-98.37 41.73,-105.37"/>
<text text-anchor="middle" x="26.57" y="-108.67" font-family="Helvetica,sans-Serif" font-size="14.00">Start</text>
</g>
<!-- end -->
<g id="node2" class="node">
<title>end</title>
</g>
<!-- 32677b84&#45;ab9f&#45;469a&#45;b6e4&#45;9b0306c302b2&#45;&gt;end -->
<g id="edge3" class="edge">
<title>32677b84&#45;ab9f&#45;469a&#45;b6e4&#45;9b0306c302b2&#45;&gt;end</title>
<path fill="none" stroke="black" d="M320.89,-101.87C340.31,-101.87 357.22,-101.87 367.61,-101.87"/>
<polygon fill="black" stroke="black" points="367.85,-105.37 377.85,-101.87 367.85,-98.37 367.85,-105.37"/>
<text text-anchor="middle" x="349.43" y="-108.67" font-family="Helvetica,sans-Serif" font-size="14.00">Finish</text>
</g>
<!-- dca55a81&#45;7a40&#45;4d0f&#45;a0bc&#45;be944eff8034 -->
<g id="node4" class="node">
<title>dca55a81&#45;7a40&#45;4d0f&#45;a0bc&#45;be944eff8034</title>
<polygon fill="#0ee832" stroke="black" points="281.5,-38 91.5,-38 91.5,0 281.5,0 281.5,-38"/>
<text text-anchor="middle" x="186.5" y="-22.8" font-family="Helvetica,sans-Serif" font-size="14.00">✓ Check</text>
<text text-anchor="middle" x="186.5" y="-7.8" font-family="Helvetica,sans-Serif" font-size="14.00">cli_snake_game/game.py</text>
</g>
<!-- 32677b84&#45;ab9f&#45;469a&#45;b6e4&#45;9b0306c302b2&#45;&gt;dca55a81&#45;7a40&#45;4d0f&#45;a0bc&#45;be944eff8034 -->
<g id="edge1" class="edge">
<title>32677b84&#45;ab9f&#45;469a&#45;b6e4&#45;9b0306c302b2&#45;&gt;dca55a81&#45;7a40&#45;4d0f&#45;a0bc&#45;be944eff8034</title>
<path fill="none" stroke="black" stroke-dasharray="5,2" d="M186.5,-74.84C186.5,-66.3 186.5,-56.78 186.5,-48.1"/>
<polygon fill="black" stroke="black" points="190,-48.05 186.5,-38.05 183,-48.05 190,-48.05"/>
</g>
</g>
</svg>
