<?xml version="1.0" encoding="UTF-8" standalone="no"?>
<!DOCTYPE svg PUBLIC "-//W3C//DTD SVG 1.1//EN"
 "http://www.w3.org/Graphics/SVG/1.1/DTD/svg11.dtd">
<!-- Generated by graphviz version 2.43.0 (0)
 -->
<!-- Title: %3 Pages: 1 -->
<svg width="1348pt" height="165pt"
 viewBox="0.00 0.00 1348.00 164.74" xmlns="http://www.w3.org/2000/svg" xmlns:xlink="http://www.w3.org/1999/xlink">
<g id="graph0" class="graph" transform="scale(1 1) rotate(0) translate(36 128.74)">
<title>%3</title>
<polygon fill="dimgray" stroke="transparent" points="-36,36 -36,-128.74 1312,-128.74 1312,36 -36,36"/>
<text text-anchor="middle" x="638" y="-77.54" font-family="Helvetica,sans-Serif" font-size="14.00">Sweep&#39;s Plan &amp; Progress</text>
<!-- start -->
<g id="node1" class="node">
<title>start</title>
</g>
<!-- cdc329d2&#45;002d&#45;4758&#45;85a2&#45;da419d3b2b69 -->
<g id="node3" class="node">
<title>cdc329d2&#45;002d&#45;4758&#45;85a2&#45;da419d3b2b69</title>
<ellipse fill="#0ee832" stroke="black" cx="183.5" cy="-26.87" rx="130.63" ry="26.74"/>
<text text-anchor="middle" x="183.5" y="-30.67" font-family="Helvetica,sans-Serif" font-size="14.00">✓ Modify</text>
<text text-anchor="middle" x="183.5" y="-15.67" font-family="Helvetica,sans-Serif" font-size="14.00">cli_snake_game/main.py</text>
</g>
<!-- start&#45;&gt;cdc329d2&#45;002d&#45;4758&#45;85a2&#45;da419d3b2b69 -->
<g id="edge4" class="edge">
<title>start&#45;&gt;cdc329d2&#45;002d&#45;4758&#45;85a2&#45;da419d3b2b69</title>
<path fill="none" stroke="black" d="M1.02,-26.87C4.11,-26.87 20.51,-26.87 42.31,-26.87"/>
<polygon fill="black" stroke="black" points="42.31,-30.37 52.31,-26.87 42.31,-23.37 42.31,-30.37"/>
<text text-anchor="middle" x="26.84" y="-33.67" font-family="Helvetica,sans-Serif" font-size="14.00">Start</text>
</g>
<!-- end -->
<g id="node2" class="node">
<title>end</title>
</g>
<!-- 31f8d8bd&#45;42ce&#45;4fbd&#45;ac90&#45;176281b9000b -->
<g id="node4" class="node">
<title>31f8d8bd&#45;42ce&#45;4fbd&#45;ac90&#45;176281b9000b</title>
<ellipse fill="#0ee832" stroke="black" cx="484.5" cy="-26.87" rx="134.2" ry="26.74"/>
<text text-anchor="middle" x="484.5" y="-30.67" font-family="Helvetica,sans-Serif" font-size="14.00">✓ Modify</text>
<text text-anchor="middle" x="484.5" y="-15.67" font-family="Helvetica,sans-Serif" font-size="14.00">cli_snake_game/game.py</text>
</g>
<!-- cdc329d2&#45;002d&#45;4758&#45;85a2&#45;da419d3b2b69&#45;&gt;31f8d8bd&#45;42ce&#45;4fbd&#45;ac90&#45;176281b9000b -->
<g id="edge1" class="edge">
<title>cdc329d2&#45;002d&#45;4758&#45;85a2&#45;da419d3b2b69&#45;&gt;31f8d8bd&#45;42ce&#45;4fbd&#45;ac90&#45;176281b9000b</title>
<path fill="none" stroke="black" d="M314.6,-26.87C323.01,-26.87 331.43,-26.87 339.84,-26.87"/>
<polygon fill="black" stroke="black" points="340.11,-30.37 350.11,-26.87 340.11,-23.37 340.11,-30.37"/>
</g>
<!-- 7011daed&#45;e36f&#45;492a&#45;ba07&#45;4f3eb9434bb6 -->
<g id="node5" class="node">
<title>7011daed&#45;e36f&#45;492a&#45;ba07&#45;4f3eb9434bb6</title>
<ellipse fill="yellow" stroke="black" cx="789.5" cy="-26.87" rx="135.11" ry="26.74"/>
<text text-anchor="middle" x="789.5" y="-30.67" font-family="Helvetica,sans-Serif" font-size="14.00">⋯ Modify</text>
<text text-anchor="middle" x="789.5" y="-15.67" font-family="Helvetica,sans-Serif" font-size="14.00">cli_snake_game/snake.py</text>
</g>
<!-- 31f8d8bd&#45;42ce&#45;4fbd&#45;ac90&#45;176281b9000b&#45;&gt;7011daed&#45;e36f&#45;492a&#45;ba07&#45;4f3eb9434bb6 -->
<g id="edge2" class="edge">
<title>31f8d8bd&#45;42ce&#45;4fbd&#45;ac90&#45;176281b9000b&#45;&gt;7011daed&#45;e36f&#45;492a&#45;ba07&#45;4f3eb9434bb6</title>
<path fill="none" stroke="black" d="M619.13,-26.87C627.49,-26.87 635.85,-26.87 644.21,-26.87"/>
<polygon fill="black" stroke="black" points="644.4,-30.37 654.4,-26.87 644.4,-23.37 644.4,-30.37"/>
</g>
<!-- 7bd40238&#45;c519&#45;407c&#45;b1fd&#45;d46b30f091bf -->
<g id="node6" class="node">
<title>7bd40238&#45;c519&#45;407c&#45;b1fd&#45;d46b30f091bf</title>
<ellipse fill="white" stroke="black" cx="1088.5" cy="-26.87" rx="128.89" ry="26.74"/>
<text text-anchor="middle" x="1088.5" y="-30.67" font-family="Helvetica,sans-Serif" font-size="14.00">▶ Modify</text>
<text text-anchor="middle" x="1088.5" y="-15.67" font-family="Helvetica,sans-Serif" font-size="14.00">cli_snake_game/food.py</text>
</g>
<!-- 7011daed&#45;e36f&#45;492a&#45;ba07&#45;4f3eb9434bb6&#45;&gt;7bd40238&#45;c519&#45;407c&#45;b1fd&#45;d46b30f091bf -->
<g id="edge3" class="edge">
<title>7011daed&#45;e36f&#45;492a&#45;ba07&#45;4f3eb9434bb6&#45;&gt;7bd40238&#45;c519&#45;407c&#45;b1fd&#45;d46b30f091bf</title>
<path fill="none" stroke="black" d="M924.69,-26.87C932.96,-26.87 941.22,-26.87 949.48,-26.87"/>
<polygon fill="black" stroke="black" points="949.57,-30.37 959.57,-26.87 949.57,-23.37 949.57,-30.37"/>
</g>
<!-- 7bd40238&#45;c519&#45;407c&#45;b1fd&#45;d46b30f091bf&#45;&gt;end -->
<g id="edge5" class="edge">
<title>7bd40238&#45;c519&#45;407c&#45;b1fd&#45;d46b30f091bf&#45;&gt;end</title>
<path fill="none" stroke="black" d="M1217.36,-26.87C1237.08,-26.87 1254.34,-26.87 1264.83,-26.87"/>
<polygon fill="black" stroke="black" points="1264.84,-30.37 1274.84,-26.87 1264.84,-23.37 1264.84,-30.37"/>
<text text-anchor="middle" x="1246.1" y="-33.67" font-family="Helvetica,sans-Serif" font-size="14.00">Finish</text>
</g>
</g>
</svg>
