<?xml version="1.0" encoding="UTF-8" standalone="no"?>
<!DOCTYPE svg PUBLIC "-//W3C//DTD SVG 1.1//EN"
 "http://www.w3.org/Graphics/SVG/1.1/DTD/svg11.dtd">
<!-- Generated by graphviz version 2.43.0 (0)
 -->
<!-- Title: %3 Pages: 1 -->
<svg width="395pt" height="240pt"
 viewBox="0.00 0.00 395.00 239.74" xmlns="http://www.w3.org/2000/svg" xmlns:xlink="http://www.w3.org/1999/xlink">
<g id="graph0" class="graph" transform="scale(1 1) rotate(0) translate(36 203.74)">
<title>%3</title>
<polygon fill="dimgray" stroke="transparent" points="-36,36 -36,-203.74 359,-203.74 359,36 -36,36"/>
<text text-anchor="middle" x="161.5" y="-152.54" font-family="Helvetica,sans-Serif" font-size="14.00">Sweep&#39;s Plan &amp; Progress</text>
<!-- start -->
<g id="node1" class="node">
<title>start</title>
</g>
<!-- 1dccb9b2&#45;c2d7&#45;4050&#45;ba59&#45;df8293121455 -->
<g id="node3" class="node">
<title>1dccb9b2&#45;c2d7&#45;4050&#45;ba59&#45;df8293121455</title>
<ellipse fill="#0ee832" stroke="black" cx="158.5" cy="-101.87" rx="106.13" ry="26.74"/>
<text text-anchor="middle" x="158.5" y="-105.67" font-family="Helvetica,sans-Serif" font-size="14.00">✓ Create</text>
<text text-anchor="middle" x="158.5" y="-90.67" font-family="Helvetica,sans-Serif" font-size="14.00">tests/test_snake.py</text>
</g>
<!-- start&#45;&gt;1dccb9b2&#45;c2d7&#45;4050&#45;ba59&#45;df8293121455 -->
<g id="edge2" class="edge">
<title>start&#45;&gt;1dccb9b2&#45;c2d7&#45;4050&#45;ba59&#45;df8293121455</title>
<path fill="none" stroke="black" d="M1.2,-101.87C4.72,-101.87 21.04,-101.87 41.93,-101.87"/>
<polygon fill="black" stroke="black" points="42.17,-105.37 52.17,-101.87 42.17,-98.37 42.17,-105.37"/>
<text text-anchor="middle" x="26.72" y="-108.67" font-family="Helvetica,sans-Serif" font-size="14.00">Start</text>
</g>
<!-- end -->
<g id="node2" class="node">
<title>end</title>
</g>
<!-- 1dccb9b2&#45;c2d7&#45;4050&#45;ba59&#45;df8293121455&#45;&gt;end -->
<g id="edge3" class="edge">
<title>1dccb9b2&#45;c2d7&#45;4050&#45;ba59&#45;df8293121455&#45;&gt;end</title>
<path fill="none" stroke="black" d="M264.68,-101.87C283.88,-101.87 301.13,-101.87 311.69,-101.87"/>
<polygon fill="black" stroke="black" points="311.82,-105.37 321.82,-101.87 311.82,-98.37 311.82,-105.37"/>
<text text-anchor="middle" x="293.28" y="-108.67" font-family="Helvetica,sans-Serif" font-size="14.00">Finish</text>
</g>
<!-- f52da676&#45;552e&#45;40b7&#45;8ed2&#45;834433d7da32 -->
<g id="node4" class="node">
<title>f52da676&#45;552e&#45;40b7&#45;8ed2&#45;834433d7da32</title>
<polygon fill="#0ee832" stroke="black" points="233.5,-38 83.5,-38 83.5,0 233.5,0 233.5,-38"/>
<text text-anchor="middle" x="158.5" y="-22.8" font-family="Helvetica,sans-Serif" font-size="14.00">✓ Check</text>
<text text-anchor="middle" x="158.5" y="-7.8" font-family="Helvetica,sans-Serif" font-size="14.00">tests/test_snake.py</text>
</g>
<!-- 1dccb9b2&#45;c2d7&#45;4050&#45;ba59&#45;df8293121455&#45;&gt;f52da676&#45;552e&#45;40b7&#45;8ed2&#45;834433d7da32 -->
<g id="edge1" class="edge">
<title>1dccb9b2&#45;c2d7&#45;4050&#45;ba59&#45;df8293121455&#45;&gt;f52da676&#45;552e&#45;40b7&#45;8ed2&#45;834433d7da32</title>
<path fill="none" stroke="black" stroke-dasharray="5,2" d="M158.5,-74.84C158.5,-66.3 158.5,-56.78 158.5,-48.1"/>
<polygon fill="black" stroke="black" points="162,-48.05 158.5,-38.05 155,-48.05 162,-48.05"/>
</g>
</g>
</svg>
