<?xml version="1.0" encoding="UTF-8" standalone="no"?>
<!DOCTYPE svg PUBLIC "-//W3C//DTD SVG 1.1//EN"
 "http://www.w3.org/Graphics/SVG/1.1/DTD/svg11.dtd">
<!-- Generated by graphviz version 2.43.0 (0)
 -->
<!-- Title: %3 Pages: 1 -->
<svg width="487pt" height="165pt"
 viewBox="0.00 0.00 487.00 164.74" xmlns="http://www.w3.org/2000/svg" xmlns:xlink="http://www.w3.org/1999/xlink">
<g id="graph0" class="graph" transform="scale(1 1) rotate(0) translate(36 128.74)">
<title>%3</title>
<polygon fill="dimgray" stroke="transparent" points="-36,36 -36,-128.74 451,-128.74 451,36 -36,36"/>
<text text-anchor="middle" x="207.5" y="-77.54" font-family="Helvetica,sans-Serif" font-size="14.00">Sweep&#39;s Plan &amp; Progress</text>
<!-- start -->
<g id="node1" class="node">
<title>start</title>
</g>
<!-- 6b9c2e79&#45;3ffd&#45;450a&#45;9d5c&#45;c906b6c844bb -->
<g id="node3" class="node">
<title>6b9c2e79&#45;3ffd&#45;450a&#45;9d5c&#45;c906b6c844bb</title>
<ellipse fill="#0ee832" stroke="black" cx="204.5" cy="-26.87" rx="152.06" ry="26.74"/>
<text text-anchor="middle" x="204.5" y="-30.67" font-family="Helvetica,sans-Serif" font-size="14.00">✓ Create</text>
<text text-anchor="middle" x="204.5" y="-15.67" font-family="Helvetica,sans-Serif" font-size="14.00">cli_snake_game/test_food.py</text>
</g>
<!-- start&#45;&gt;6b9c2e79&#45;3ffd&#45;450a&#45;9d5c&#45;c906b6c844bb -->
<g id="edge1" class="edge">
<title>start&#45;&gt;6b9c2e79&#45;3ffd&#45;450a&#45;9d5c&#45;c906b6c844bb</title>
<path fill="none" stroke="black" d="M1.09,-26.87C4.29,-26.87 20.39,-26.87 42.23,-26.87"/>
<polygon fill="black" stroke="black" points="42.28,-30.37 52.28,-26.87 42.28,-23.37 42.28,-30.37"/>
<text text-anchor="middle" x="26.74" y="-33.67" font-family="Helvetica,sans-Serif" font-size="14.00">Start</text>
</g>
<!-- end -->
<g id="node2" class="node">
<title>end</title>
</g>
<!-- 6b9c2e79&#45;3ffd&#45;450a&#45;9d5c&#45;c906b6c844bb&#45;&gt;end -->
<g id="edge2" class="edge">
<title>6b9c2e79&#45;3ffd&#45;450a&#45;9d5c&#45;c906b6c844bb&#45;&gt;end</title>
<path fill="none" stroke="black" d="M356.56,-26.87C376.33,-26.87 393.28,-26.87 403.66,-26.87"/>
<polygon fill="black" stroke="black" points="403.85,-30.37 413.85,-26.87 403.85,-23.37 403.85,-30.37"/>
<text text-anchor="middle" x="385.26" y="-33.67" font-family="Helvetica,sans-Serif" font-size="14.00">Finish</text>
</g>
</g>
</svg>
