<?xml version="1.0" encoding="UTF-8" standalone="no"?>
<!DOCTYPE svg PUBLIC "-//W3C//DTD SVG 1.1//EN"
 "http://www.w3.org/Graphics/SVG/1.1/DTD/svg11.dtd">
<!-- Generated by graphviz version 2.43.0 (0)
 -->
<!-- Title: %3 Pages: 1 -->
<svg width="897pt" height="165pt"
 viewBox="0.00 0.00 897.00 164.74" xmlns="http://www.w3.org/2000/svg" xmlns:xlink="http://www.w3.org/1999/xlink">
<g id="graph0" class="graph" transform="scale(1 1) rotate(0) translate(36 128.74)">
<title>%3</title>
<polygon fill="dimgray" stroke="transparent" points="-36,36 -36,-128.74 861,-128.74 861,36 -36,36"/>
<text text-anchor="middle" x="412.5" y="-77.54" font-family="Helvetica,sans-Serif" font-size="14.00">Sweep&#39;s Plan &amp; Progress</text>
<!-- start -->
<g id="node1" class="node">
<title>start</title>
</g>
<!-- 05bca32b&#45;b7b8&#45;481d&#45;8b35&#45;5ae7b15ce03b -->
<g id="node3" class="node">
<title>05bca32b&#45;b7b8&#45;481d&#45;8b35&#45;5ae7b15ce03b</title>
<ellipse fill="yellow" stroke="black" cx="124.5" cy="-26.87" rx="72.25" ry="26.74"/>
<text text-anchor="middle" x="124.5" y="-30.67" font-family="Helvetica,sans-Serif" font-size="14.00">⋯ Create</text>
<text text-anchor="middle" x="124.5" y="-15.67" font-family="Helvetica,sans-Serif" font-size="14.00">test_food.py</text>
</g>
<!-- start&#45;&gt;05bca32b&#45;b7b8&#45;481d&#45;8b35&#45;5ae7b15ce03b -->
<g id="edge4" class="edge">
<title>start&#45;&gt;05bca32b&#45;b7b8&#45;481d&#45;8b35&#45;5ae7b15ce03b</title>
<path fill="none" stroke="black" d="M1.29,-26.87C5.09,-26.87 22.05,-26.87 42.23,-26.87"/>
<polygon fill="black" stroke="black" points="42.36,-30.37 52.36,-26.87 42.36,-23.37 42.36,-30.37"/>
<text text-anchor="middle" x="26.69" y="-33.67" font-family="Helvetica,sans-Serif" font-size="14.00">Start</text>
</g>
<!-- end -->
<g id="node2" class="node">
<title>end</title>
</g>
<!-- f1aa4aa0&#45;3b65&#45;46ea&#45;9461&#45;9bf1dcbdf932 -->
<g id="node4" class="node">
<title>f1aa4aa0&#45;3b65&#45;46ea&#45;9461&#45;9bf1dcbdf932</title>
<ellipse fill="white" stroke="black" cx="309.5" cy="-26.87" rx="77.56" ry="26.74"/>
<text text-anchor="middle" x="309.5" y="-30.67" font-family="Helvetica,sans-Serif" font-size="14.00">▶ Create</text>
<text text-anchor="middle" x="309.5" y="-15.67" font-family="Helvetica,sans-Serif" font-size="14.00">test_game.py</text>
</g>
<!-- 05bca32b&#45;b7b8&#45;481d&#45;8b35&#45;5ae7b15ce03b&#45;&gt;f1aa4aa0&#45;3b65&#45;46ea&#45;9461&#45;9bf1dcbdf932 -->
<g id="edge1" class="edge">
<title>05bca32b&#45;b7b8&#45;481d&#45;8b35&#45;5ae7b15ce03b&#45;&gt;f1aa4aa0&#45;3b65&#45;46ea&#45;9461&#45;9bf1dcbdf932</title>
<path fill="none" stroke="black" d="M196.77,-26.87C205.01,-26.87 213.25,-26.87 221.5,-26.87"/>
<polygon fill="black" stroke="black" points="221.55,-30.37 231.55,-26.87 221.55,-23.37 221.55,-30.37"/>
</g>
<!-- df94f07a&#45;4519&#45;4789&#45;a9eb&#45;002f1b92a129 -->
<g id="node5" class="node">
<title>df94f07a&#45;4519&#45;4789&#45;a9eb&#45;002f1b92a129</title>
<ellipse fill="white" stroke="black" cx="501.5" cy="-26.87" rx="79.39" ry="26.74"/>
<text text-anchor="middle" x="501.5" y="-30.67" font-family="Helvetica,sans-Serif" font-size="14.00">▶ Create</text>
<text text-anchor="middle" x="501.5" y="-15.67" font-family="Helvetica,sans-Serif" font-size="14.00">test_snake.py</text>
</g>
<!-- f1aa4aa0&#45;3b65&#45;46ea&#45;9461&#45;9bf1dcbdf932&#45;&gt;df94f07a&#45;4519&#45;4789&#45;a9eb&#45;002f1b92a129 -->
<g id="edge2" class="edge">
<title>f1aa4aa0&#45;3b65&#45;46ea&#45;9461&#45;9bf1dcbdf932&#45;&gt;df94f07a&#45;4519&#45;4789&#45;a9eb&#45;002f1b92a129</title>
<path fill="none" stroke="black" d="M387.5,-26.87C395.73,-26.87 403.96,-26.87 412.19,-26.87"/>
<polygon fill="black" stroke="black" points="412.23,-30.37 422.23,-26.87 412.23,-23.37 412.23,-30.37"/>
</g>
<!-- 67c2ee40&#45;fe58&#45;4f59&#45;b9b3&#45;b7c06da6554c -->
<g id="node6" class="node">
<title>67c2ee40&#45;fe58&#45;4f59&#45;b9b3&#45;b7c06da6554c</title>
<ellipse fill="white" stroke="black" cx="691.5" cy="-26.87" rx="74.91" ry="26.74"/>
<text text-anchor="middle" x="691.5" y="-30.67" font-family="Helvetica,sans-Serif" font-size="14.00">▶ Create</text>
<text text-anchor="middle" x="691.5" y="-15.67" font-family="Helvetica,sans-Serif" font-size="14.00">test_main.py</text>
</g>
<!-- df94f07a&#45;4519&#45;4789&#45;a9eb&#45;002f1b92a129&#45;&gt;67c2ee40&#45;fe58&#45;4f59&#45;b9b3&#45;b7c06da6554c -->
<g id="edge3" class="edge">
<title>df94f07a&#45;4519&#45;4789&#45;a9eb&#45;002f1b92a129&#45;&gt;67c2ee40&#45;fe58&#45;4f59&#45;b9b3&#45;b7c06da6554c</title>
<path fill="none" stroke="black" d="M580.91,-26.87C589.31,-26.87 597.7,-26.87 606.1,-26.87"/>
<polygon fill="black" stroke="black" points="606.34,-30.37 616.34,-26.87 606.34,-23.37 606.34,-30.37"/>
</g>
<!-- 67c2ee40&#45;fe58&#45;4f59&#45;b9b3&#45;b7c06da6554c&#45;&gt;end -->
<g id="edge5" class="edge">
<title>67c2ee40&#45;fe58&#45;4f59&#45;b9b3&#45;b7c06da6554c&#45;&gt;end</title>
<path fill="none" stroke="black" d="M766.55,-26.87C785.13,-26.87 802.81,-26.87 813.65,-26.87"/>
<polygon fill="black" stroke="black" points="813.79,-30.37 823.79,-26.87 813.79,-23.37 813.79,-30.37"/>
<text text-anchor="middle" x="795.23" y="-33.67" font-family="Helvetica,sans-Serif" font-size="14.00">Finish</text>
</g>
</g>
</svg>
