<?xml version="1.0" encoding="UTF-8" standalone="no"?>
<!DOCTYPE svg PUBLIC "-//W3C//DTD SVG 1.1//EN"
 "http://www.w3.org/Graphics/SVG/1.1/DTD/svg11.dtd">
<!-- Generated by graphviz version 2.43.0 (0)
 -->
<!-- Title: %3 Pages: 1 -->
<svg width="757pt" height="165pt"
 viewBox="0.00 0.00 757.00 164.74" xmlns="http://www.w3.org/2000/svg" xmlns:xlink="http://www.w3.org/1999/xlink">
<g id="graph0" class="graph" transform="scale(1 1) rotate(0) translate(36 128.74)">
<title>%3</title>
<polygon fill="dimgray" stroke="transparent" points="-36,36 -36,-128.74 721,-128.74 721,36 -36,36"/>
<text text-anchor="middle" x="342.5" y="-77.54" font-family="Helvetica,sans-Serif" font-size="14.00">Sweep&#39;s Plan &amp; Progress</text>
<!-- start -->
<g id="node1" class="node">
<title>start</title>
</g>
<!-- 6de09d28&#45;a021&#45;4201&#45;b668&#45;46034eb15620 -->
<g id="node3" class="node">
<title>6de09d28&#45;a021&#45;4201&#45;b668&#45;46034eb15620</title>
<ellipse fill="#0ee832" stroke="black" cx="187.5" cy="-26.87" rx="135.11" ry="26.74"/>
<text text-anchor="middle" x="187.5" y="-30.67" font-family="Helvetica,sans-Serif" font-size="14.00">✓ Modify</text>
<text text-anchor="middle" x="187.5" y="-15.67" font-family="Helvetica,sans-Serif" font-size="14.00">cli_snake_game/snake.py</text>
</g>
<!-- start&#45;&gt;6de09d28&#45;a021&#45;4201&#45;b668&#45;46034eb15620 -->
<g id="edge2" class="edge">
<title>start&#45;&gt;6de09d28&#45;a021&#45;4201&#45;b668&#45;46034eb15620</title>
<path fill="none" stroke="black" d="M1.04,-26.87C4.12,-26.87 20.21,-26.87 41.75,-26.87"/>
<polygon fill="black" stroke="black" points="42,-30.37 52,-26.87 42,-23.37 42,-30.37"/>
<text text-anchor="middle" x="26.72" y="-33.67" font-family="Helvetica,sans-Serif" font-size="14.00">Start</text>
</g>
<!-- end -->
<g id="node2" class="node">
<title>end</title>
</g>
<!-- 29184a65&#45;ec8a&#45;42ce&#45;83c3&#45;7a890d5f83c0 -->
<g id="node4" class="node">
<title>29184a65&#45;ec8a&#45;42ce&#45;83c3&#45;7a890d5f83c0</title>
<ellipse fill="#0ee832" stroke="black" cx="492.5" cy="-26.87" rx="134.2" ry="26.74"/>
<text text-anchor="middle" x="492.5" y="-30.67" font-family="Helvetica,sans-Serif" font-size="14.00">✓ Modify</text>
<text text-anchor="middle" x="492.5" y="-15.67" font-family="Helvetica,sans-Serif" font-size="14.00">cli_snake_game/game.py</text>
</g>
<!-- 6de09d28&#45;a021&#45;4201&#45;b668&#45;46034eb15620&#45;&gt;29184a65&#45;ec8a&#45;42ce&#45;83c3&#45;7a890d5f83c0 -->
<g id="edge1" class="edge">
<title>6de09d28&#45;a021&#45;4201&#45;b668&#45;46034eb15620&#45;&gt;29184a65&#45;ec8a&#45;42ce&#45;83c3&#45;7a890d5f83c0</title>
<path fill="none" stroke="black" d="M322.72,-26.87C331.05,-26.87 339.38,-26.87 347.71,-26.87"/>
<polygon fill="black" stroke="black" points="347.87,-30.37 357.87,-26.87 347.87,-23.37 347.87,-30.37"/>
</g>
<!-- 29184a65&#45;ec8a&#45;42ce&#45;83c3&#45;7a890d5f83c0&#45;&gt;end -->
<g id="edge3" class="edge">
<title>29184a65&#45;ec8a&#45;42ce&#45;83c3&#45;7a890d5f83c0&#45;&gt;end</title>
<path fill="none" stroke="black" d="M626.89,-26.87C646.31,-26.87 663.22,-26.87 673.61,-26.87"/>
<polygon fill="black" stroke="black" points="673.85,-30.37 683.85,-26.87 673.85,-23.37 673.85,-30.37"/>
<text text-anchor="middle" x="655.43" y="-33.67" font-family="Helvetica,sans-Serif" font-size="14.00">Finish</text>
</g>
</g>
</svg>
