<?xml version="1.0" encoding="UTF-8" standalone="no"?>
<!DOCTYPE svg PUBLIC "-//W3C//DTD SVG 1.1//EN"
 "http://www.w3.org/Graphics/SVG/1.1/DTD/svg11.dtd">
<!-- Generated by graphviz version 2.43.0 (0)
 -->
<!-- Title: %3 Pages: 1 -->
<svg width="451pt" height="165pt"
 viewBox="0.00 0.00 451.00 164.74" xmlns="http://www.w3.org/2000/svg" xmlns:xlink="http://www.w3.org/1999/xlink">
<g id="graph0" class="graph" transform="scale(1 1) rotate(0) translate(36 128.74)">
<title>%3</title>
<polygon fill="dimgray" stroke="transparent" points="-36,36 -36,-128.74 415,-128.74 415,36 -36,36"/>
<text text-anchor="middle" x="189.5" y="-77.54" font-family="Helvetica,sans-Serif" font-size="14.00">Sweep&#39;s Plan &amp; Progress</text>
<!-- start -->
<g id="node1" class="node">
<title>start</title>
</g>
<!-- 08726114&#45;b192&#45;4b8b&#45;b70a&#45;e672b2908056 -->
<g id="node3" class="node">
<title>08726114&#45;b192&#45;4b8b&#45;b70a&#45;e672b2908056</title>
<ellipse fill="#0ee832" stroke="black" cx="186.5" cy="-26.87" rx="134.2" ry="26.74"/>
<text text-anchor="middle" x="186.5" y="-30.67" font-family="Helvetica,sans-Serif" font-size="14.00">✓ Modify</text>
<text text-anchor="middle" x="186.5" y="-15.67" font-family="Helvetica,sans-Serif" font-size="14.00">cli_snake_game/game.py</text>
</g>
<!-- start&#45;&gt;08726114&#45;b192&#45;4b8b&#45;b70a&#45;e672b2908056 -->
<g id="edge1" class="edge">
<title>start&#45;&gt;08726114&#45;b192&#45;4b8b&#45;b70a&#45;e672b2908056</title>
<path fill="none" stroke="black" d="M1.03,-26.87C4.1,-26.87 20.1,-26.87 41.53,-26.87"/>
<polygon fill="black" stroke="black" points="41.73,-30.37 51.73,-26.87 41.73,-23.37 41.73,-30.37"/>
<text text-anchor="middle" x="26.57" y="-33.67" font-family="Helvetica,sans-Serif" font-size="14.00">Start</text>
</g>
<!-- end -->
<g id="node2" class="node">
<title>end</title>
</g>
<!-- 08726114&#45;b192&#45;4b8b&#45;b70a&#45;e672b2908056&#45;&gt;end -->
<g id="edge2" class="edge">
<title>08726114&#45;b192&#45;4b8b&#45;b70a&#45;e672b2908056&#45;&gt;end</title>
<path fill="none" stroke="black" d="M320.89,-26.87C340.31,-26.87 357.22,-26.87 367.61,-26.87"/>
<polygon fill="black" stroke="black" points="367.85,-30.37 377.85,-26.87 367.85,-23.37 367.85,-30.37"/>
<text text-anchor="middle" x="349.43" y="-33.67" font-family="Helvetica,sans-Serif" font-size="14.00">Finish</text>
</g>
</g>
</svg>
