<?xml version="1.0" encoding="UTF-8" standalone="no"?>
<!DOCTYPE svg PUBLIC "-//W3C//DTD SVG 1.1//EN"
 "http://www.w3.org/Graphics/SVG/1.1/DTD/svg11.dtd">
<!-- Generated by graphviz version 2.43.0 (0)
 -->
<!-- Title: %3 Pages: 1 -->
<svg width="327pt" height="165pt"
 viewBox="0.00 0.00 327.00 164.74" xmlns="http://www.w3.org/2000/svg" xmlns:xlink="http://www.w3.org/1999/xlink">
<g id="graph0" class="graph" transform="scale(1 1) rotate(0) translate(36 128.74)">
<title>%3</title>
<polygon fill="dimgray" stroke="transparent" points="-36,36 -36,-128.74 291,-128.74 291,36 -36,36"/>
<text text-anchor="middle" x="127.5" y="-77.54" font-family="Helvetica,sans-Serif" font-size="14.00">Sweep&#39;s Plan &amp; Progress</text>
<!-- start -->
<g id="node1" class="node">
<title>start</title>
</g>
<!-- 6316cc42&#45;9db0&#45;4ad6&#45;951d&#45;f6455380df3e -->
<g id="node3" class="node">
<title>6316cc42&#45;9db0&#45;4ad6&#45;951d&#45;f6455380df3e</title>
<ellipse fill="#0ee832" stroke="black" cx="124.5" cy="-26.87" rx="72.25" ry="26.74"/>
<text text-anchor="middle" x="124.5" y="-30.67" font-family="Helvetica,sans-Serif" font-size="14.00">✓ Create</text>
<text text-anchor="middle" x="124.5" y="-15.67" font-family="Helvetica,sans-Serif" font-size="14.00">test_food.py</text>
</g>
<!-- start&#45;&gt;6316cc42&#45;9db0&#45;4ad6&#45;951d&#45;f6455380df3e -->
<g id="edge1" class="edge">
<title>start&#45;&gt;6316cc42&#45;9db0&#45;4ad6&#45;951d&#45;f6455380df3e</title>
<path fill="none" stroke="black" d="M1.29,-26.87C5.09,-26.87 22.05,-26.87 42.23,-26.87"/>
<polygon fill="black" stroke="black" points="42.36,-30.37 52.36,-26.87 42.36,-23.37 42.36,-30.37"/>
<text text-anchor="middle" x="26.69" y="-33.67" font-family="Helvetica,sans-Serif" font-size="14.00">Start</text>
</g>
<!-- end -->
<g id="node2" class="node">
<title>end</title>
</g>
<!-- 6316cc42&#45;9db0&#45;4ad6&#45;951d&#45;f6455380df3e&#45;&gt;end -->
<g id="edge2" class="edge">
<title>6316cc42&#45;9db0&#45;4ad6&#45;951d&#45;f6455380df3e&#45;&gt;end</title>
<path fill="none" stroke="black" d="M196.72,-26.87C215.15,-26.87 232.8,-26.87 243.64,-26.87"/>
<polygon fill="black" stroke="black" points="243.79,-30.37 253.79,-26.87 243.79,-23.37 243.79,-30.37"/>
<text text-anchor="middle" x="225.31" y="-33.67" font-family="Helvetica,sans-Serif" font-size="14.00">Finish</text>
</g>
</g>
</svg>
