<?xml version="1.0" encoding="UTF-8" standalone="no"?>
<!DOCTYPE svg PUBLIC "-//W3C//DTD SVG 1.1//EN"
 "http://www.w3.org/Graphics/SVG/1.1/DTD/svg11.dtd">
<!-- Generated by graphviz version 2.43.0 (0)
 -->
<!-- Title: %3 Pages: 1 -->
<svg width="445pt" height="240pt"
 viewBox="0.00 0.00 445.00 239.74" xmlns="http://www.w3.org/2000/svg" xmlns:xlink="http://www.w3.org/1999/xlink">
<g id="graph0" class="graph" transform="scale(1 1) rotate(0) translate(36 203.74)">
<title>%3</title>
<polygon fill="dimgray" stroke="transparent" points="-36,36 -36,-203.74 409,-203.74 409,36 -36,36"/>
<text text-anchor="middle" x="186.5" y="-152.54" font-family="Helvetica,sans-Serif" font-size="14.00">Sweep&#39;s Plan &amp; Progress</text>
<!-- start -->
<g id="node1" class="node">
<title>start</title>
</g>
<!-- 170f8a9a&#45;8ff7&#45;45a7&#45;a9c8&#45;e0a96ab753f0 -->
<g id="node3" class="node">
<title>170f8a9a&#45;8ff7&#45;45a7&#45;a9c8&#45;e0a96ab753f0</title>
<ellipse fill="#ee0000" stroke="black" cx="183.5" cy="-101.87" rx="130.63" ry="26.74"/>
<text text-anchor="middle" x="183.5" y="-105.67" font-family="Helvetica,sans-Serif" font-size="14.00">✗ Modify</text>
<text text-anchor="middle" x="183.5" y="-90.67" font-family="Helvetica,sans-Serif" font-size="14.00">cli_snake_game/main.py</text>
</g>
<!-- start&#45;&gt;170f8a9a&#45;8ff7&#45;45a7&#45;a9c8&#45;e0a96ab753f0 -->
<g id="edge2" class="edge">
<title>start&#45;&gt;170f8a9a&#45;8ff7&#45;45a7&#45;a9c8&#45;e0a96ab753f0</title>
<path fill="none" stroke="black" d="M1.02,-101.87C4.11,-101.87 20.51,-101.87 42.31,-101.87"/>
<polygon fill="black" stroke="black" points="42.31,-105.37 52.31,-101.87 42.31,-98.37 42.31,-105.37"/>
<text text-anchor="middle" x="26.84" y="-108.67" font-family="Helvetica,sans-Serif" font-size="14.00">Start</text>
</g>
<!-- end -->
<g id="node2" class="node">
<title>end</title>
</g>
<!-- 170f8a9a&#45;8ff7&#45;45a7&#45;a9c8&#45;e0a96ab753f0&#45;&gt;end -->
<g id="edge3" class="edge">
<title>170f8a9a&#45;8ff7&#45;45a7&#45;a9c8&#45;e0a96ab753f0&#45;&gt;end</title>
<path fill="none" stroke="black" d="M314.51,-101.87C333.99,-101.87 351.03,-101.87 361.51,-101.87"/>
<polygon fill="black" stroke="black" points="361.84,-105.37 371.84,-101.87 361.84,-98.37 361.84,-105.37"/>
<text text-anchor="middle" x="343.16" y="-108.67" font-family="Helvetica,sans-Serif" font-size="14.00">Finish</text>
</g>
<!-- 64b1f81a&#45;9d77&#45;4a72&#45;b4b9&#45;a80f4ee69b26 -->
<g id="node4" class="node">
<title>64b1f81a&#45;9d77&#45;4a72&#45;b4b9&#45;a80f4ee69b26</title>
<polygon fill="yellow" stroke="black" points="276,-38 91,-38 91,0 276,0 276,-38"/>
<text text-anchor="middle" x="183.5" y="-22.8" font-family="Helvetica,sans-Serif" font-size="14.00">⋯ Check</text>
<text text-anchor="middle" x="183.5" y="-7.8" font-family="Helvetica,sans-Serif" font-size="14.00">cli_snake_game/main.py</text>
</g>
<!-- 170f8a9a&#45;8ff7&#45;45a7&#45;a9c8&#45;e0a96ab753f0&#45;&gt;64b1f81a&#45;9d77&#45;4a72&#45;b4b9&#45;a80f4ee69b26 -->
<g id="edge1" class="edge">
<title>170f8a9a&#45;8ff7&#45;45a7&#45;a9c8&#45;e0a96ab753f0&#45;&gt;64b1f81a&#45;9d77&#45;4a72&#45;b4b9&#45;a80f4ee69b26</title>
<path fill="none" stroke="black" stroke-dasharray="5,2" d="M183.5,-74.84C183.5,-66.3 183.5,-56.78 183.5,-48.1"/>
<polygon fill="black" stroke="black" points="187,-48.05 183.5,-38.05 180,-48.05 187,-48.05"/>
</g>
</g>
</svg>
