<?xml version="1.0" encoding="UTF-8" standalone="no"?>
<!DOCTYPE svg PUBLIC "-//W3C//DTD SVG 1.1//EN"
 "http://www.w3.org/Graphics/SVG/1.1/DTD/svg11.dtd">
<!-- Generated by graphviz version 2.43.0 (0)
 -->
<!-- Title: %3 Pages: 1 -->
<svg width="1534pt" height="240pt"
 viewBox="0.00 0.00 1534.00 239.74" xmlns="http://www.w3.org/2000/svg" xmlns:xlink="http://www.w3.org/1999/xlink">
<g id="graph0" class="graph" transform="scale(1 1) rotate(0) translate(36 203.74)">
<title>%3</title>
<polygon fill="dimgray" stroke="transparent" points="-36,36 -36,-203.74 1498,-203.74 1498,36 -36,36"/>
<text text-anchor="middle" x="731" y="-152.54" font-family="Helvetica,sans-Serif" font-size="14.00">Sweep&#39;s Plan &amp; Progress</text>
<!-- start -->
<g id="node1" class="node">
<title>start</title>
</g>
<!-- 9910a3b2&#45;e2de&#45;4b09&#45;a2dd&#45;fb45ba46fabe -->
<g id="node3" class="node">
<title>9910a3b2&#45;e2de&#45;4b09&#45;a2dd&#45;fb45ba46fabe</title>
<ellipse fill="#0ee832" stroke="black" cx="204.5" cy="-101.87" rx="152.06" ry="26.74"/>
<text text-anchor="middle" x="204.5" y="-105.67" font-family="Helvetica,sans-Serif" font-size="14.00">✓ Create</text>
<text text-anchor="middle" x="204.5" y="-90.67" font-family="Helvetica,sans-Serif" font-size="14.00">cli_snake_game/test_food.py</text>
</g>
<!-- start&#45;&gt;9910a3b2&#45;e2de&#45;4b09&#45;a2dd&#45;fb45ba46fabe -->
<g id="edge8" class="edge">
<title>start&#45;&gt;9910a3b2&#45;e2de&#45;4b09&#45;a2dd&#45;fb45ba46fabe</title>
<path fill="none" stroke="black" d="M1.09,-101.87C4.29,-101.87 20.39,-101.87 42.23,-101.87"/>
<polygon fill="black" stroke="black" points="42.28,-105.37 52.28,-101.87 42.28,-98.37 42.28,-105.37"/>
<text text-anchor="middle" x="26.74" y="-108.67" font-family="Helvetica,sans-Serif" font-size="14.00">Start</text>
</g>
<!-- end -->
<g id="node2" class="node">
<title>end</title>
</g>
<!-- 4cd04d78&#45;f6a1&#45;4047&#45;ab6a&#45;6ee916fe444b -->
<g id="node4" class="node">
<title>4cd04d78&#45;f6a1&#45;4047&#45;ab6a&#45;6ee916fe444b</title>
<ellipse fill="#0ee832" stroke="black" cx="549.5" cy="-101.87" rx="157.87" ry="26.74"/>
<text text-anchor="middle" x="549.5" y="-105.67" font-family="Helvetica,sans-Serif" font-size="14.00">✓ Create</text>
<text text-anchor="middle" x="549.5" y="-90.67" font-family="Helvetica,sans-Serif" font-size="14.00">cli_snake_game/test_game.py</text>
</g>
<!-- 9910a3b2&#45;e2de&#45;4b09&#45;a2dd&#45;fb45ba46fabe&#45;&gt;4cd04d78&#45;f6a1&#45;4047&#45;ab6a&#45;6ee916fe444b -->
<g id="edge2" class="edge">
<title>9910a3b2&#45;e2de&#45;4b09&#45;a2dd&#45;fb45ba46fabe&#45;&gt;4cd04d78&#45;f6a1&#45;4047&#45;ab6a&#45;6ee916fe444b</title>
<path fill="none" stroke="black" d="M356.79,-101.87C365.08,-101.87 373.38,-101.87 381.67,-101.87"/>
<polygon fill="black" stroke="black" points="381.79,-105.37 391.79,-101.87 381.79,-98.37 381.79,-105.37"/>
</g>
<!-- 19b44c05&#45;067e&#45;4473&#45;896c&#45;a5bdee722082 -->
<g id="node7" class="node">
<title>19b44c05&#45;067e&#45;4473&#45;896c&#45;a5bdee722082</title>
<polygon fill="#0ee832" stroke="black" points="312,-38 97,-38 97,0 312,0 312,-38"/>
<text text-anchor="middle" x="204.5" y="-22.8" font-family="Helvetica,sans-Serif" font-size="14.00">✓ Check</text>
<text text-anchor="middle" x="204.5" y="-7.8" font-family="Helvetica,sans-Serif" font-size="14.00">cli_snake_game/test_food.py</text>
</g>
<!-- 9910a3b2&#45;e2de&#45;4b09&#45;a2dd&#45;fb45ba46fabe&#45;&gt;19b44c05&#45;067e&#45;4473&#45;896c&#45;a5bdee722082 -->
<g id="edge1" class="edge">
<title>9910a3b2&#45;e2de&#45;4b09&#45;a2dd&#45;fb45ba46fabe&#45;&gt;19b44c05&#45;067e&#45;4473&#45;896c&#45;a5bdee722082</title>
<path fill="none" stroke="black" stroke-dasharray="5,2" d="M204.5,-74.84C204.5,-66.3 204.5,-56.78 204.5,-48.1"/>
<polygon fill="black" stroke="black" points="208,-48.05 204.5,-38.05 201,-48.05 208,-48.05"/>
</g>
<!-- 0886dc7d&#45;a140&#45;4bdc&#45;92e4&#45;dfba8b7a3eaa -->
<g id="node5" class="node">
<title>0886dc7d&#45;a140&#45;4bdc&#45;92e4&#45;dfba8b7a3eaa</title>
<ellipse fill="#0ee832" stroke="black" cx="901.5" cy="-101.87" rx="158.28" ry="26.74"/>
<text text-anchor="middle" x="901.5" y="-105.67" font-family="Helvetica,sans-Serif" font-size="14.00">✓ Create</text>
<text text-anchor="middle" x="901.5" y="-90.67" font-family="Helvetica,sans-Serif" font-size="14.00">cli_snake_game/test_snake.py</text>
</g>
<!-- 4cd04d78&#45;f6a1&#45;4047&#45;ab6a&#45;6ee916fe444b&#45;&gt;0886dc7d&#45;a140&#45;4bdc&#45;92e4&#45;dfba8b7a3eaa -->
<g id="edge4" class="edge">
<title>4cd04d78&#45;f6a1&#45;4047&#45;ab6a&#45;6ee916fe444b&#45;&gt;0886dc7d&#45;a140&#45;4bdc&#45;92e4&#45;dfba8b7a3eaa</title>
<path fill="none" stroke="black" d="M707.28,-101.87C715.82,-101.87 724.37,-101.87 732.91,-101.87"/>
<polygon fill="black" stroke="black" points="732.94,-105.37 742.94,-101.87 732.94,-98.37 732.94,-105.37"/>
</g>
<!-- ffcd6282&#45;a187&#45;451e&#45;a6e8&#45;26fcf8448ffc -->
<g id="node8" class="node">
<title>ffcd6282&#45;a187&#45;451e&#45;a6e8&#45;26fcf8448ffc</title>
<polygon fill="#0ee832" stroke="black" points="661,-38 438,-38 438,0 661,0 661,-38"/>
<text text-anchor="middle" x="549.5" y="-22.8" font-family="Helvetica,sans-Serif" font-size="14.00">✓ Check</text>
<text text-anchor="middle" x="549.5" y="-7.8" font-family="Helvetica,sans-Serif" font-size="14.00">cli_snake_game/test_game.py</text>
</g>
<!-- 4cd04d78&#45;f6a1&#45;4047&#45;ab6a&#45;6ee916fe444b&#45;&gt;ffcd6282&#45;a187&#45;451e&#45;a6e8&#45;26fcf8448ffc -->
<g id="edge3" class="edge">
<title>4cd04d78&#45;f6a1&#45;4047&#45;ab6a&#45;6ee916fe444b&#45;&gt;ffcd6282&#45;a187&#45;451e&#45;a6e8&#45;26fcf8448ffc</title>
<path fill="none" stroke="black" stroke-dasharray="5,2" d="M549.5,-74.84C549.5,-66.3 549.5,-56.78 549.5,-48.1"/>
<polygon fill="black" stroke="black" points="553,-48.05 549.5,-38.05 546,-48.05 553,-48.05"/>
</g>
<!-- bb6bfdbc&#45;4008&#45;49bc&#45;a725&#45;94a07dccbb79 -->
<g id="node6" class="node">
<title>bb6bfdbc&#45;4008&#45;49bc&#45;a725&#45;94a07dccbb79</title>
<ellipse fill="#0ee832" stroke="black" cx="1249.5" cy="-101.87" rx="154.3" ry="26.74"/>
<text text-anchor="middle" x="1249.5" y="-105.67" font-family="Helvetica,sans-Serif" font-size="14.00">✓ Create</text>
<text text-anchor="middle" x="1249.5" y="-90.67" font-family="Helvetica,sans-Serif" font-size="14.00">cli_snake_game/test_main.py</text>
</g>
<!-- 0886dc7d&#45;a140&#45;4bdc&#45;92e4&#45;dfba8b7a3eaa&#45;&gt;bb6bfdbc&#45;4008&#45;49bc&#45;a725&#45;94a07dccbb79 -->
<g id="edge6" class="edge">
<title>0886dc7d&#45;a140&#45;4bdc&#45;92e4&#45;dfba8b7a3eaa&#45;&gt;bb6bfdbc&#45;4008&#45;49bc&#45;a725&#45;94a07dccbb79</title>
<path fill="none" stroke="black" d="M1060.21,-101.87C1068.53,-101.87 1076.85,-101.87 1085.18,-101.87"/>
<polygon fill="black" stroke="black" points="1085.33,-105.37 1095.33,-101.87 1085.33,-98.37 1085.33,-105.37"/>
</g>
<!-- e76a2ab0&#45;8832&#45;4f14&#45;a741&#45;4bd61e68d06b -->
<g id="node9" class="node">
<title>e76a2ab0&#45;8832&#45;4f14&#45;a741&#45;4bd61e68d06b</title>
<polygon fill="#0ee832" stroke="black" points="1013.5,-38 789.5,-38 789.5,0 1013.5,0 1013.5,-38"/>
<text text-anchor="middle" x="901.5" y="-22.8" font-family="Helvetica,sans-Serif" font-size="14.00">✓ Check</text>
<text text-anchor="middle" x="901.5" y="-7.8" font-family="Helvetica,sans-Serif" font-size="14.00">cli_snake_game/test_snake.py</text>
</g>
<!-- 0886dc7d&#45;a140&#45;4bdc&#45;92e4&#45;dfba8b7a3eaa&#45;&gt;e76a2ab0&#45;8832&#45;4f14&#45;a741&#45;4bd61e68d06b -->
<g id="edge5" class="edge">
<title>0886dc7d&#45;a140&#45;4bdc&#45;92e4&#45;dfba8b7a3eaa&#45;&gt;e76a2ab0&#45;8832&#45;4f14&#45;a741&#45;4bd61e68d06b</title>
<path fill="none" stroke="black" stroke-dasharray="5,2" d="M901.5,-74.84C901.5,-66.3 901.5,-56.78 901.5,-48.1"/>
<polygon fill="black" stroke="black" points="905,-48.05 901.5,-38.05 898,-48.05 905,-48.05"/>
</g>
<!-- bb6bfdbc&#45;4008&#45;49bc&#45;a725&#45;94a07dccbb79&#45;&gt;end -->
<g id="edge9" class="edge">
<title>bb6bfdbc&#45;4008&#45;49bc&#45;a725&#45;94a07dccbb79&#45;&gt;end</title>
<path fill="none" stroke="black" d="M1403.85,-101.87C1423.55,-101.87 1440.42,-101.87 1450.73,-101.87"/>
<polygon fill="black" stroke="black" points="1450.86,-105.37 1460.86,-101.87 1450.86,-98.37 1450.86,-105.37"/>
<text text-anchor="middle" x="1432.32" y="-108.67" font-family="Helvetica,sans-Serif" font-size="14.00">Finish</text>
</g>
<!-- 9b7aa546&#45;d08b&#45;4f02&#45;9174&#45;1440eb8aa65d -->
<g id="node10" class="node">
<title>9b7aa546&#45;d08b&#45;4f02&#45;9174&#45;1440eb8aa65d</title>
<polygon fill="yellow" stroke="black" points="1358.5,-38 1140.5,-38 1140.5,0 1358.5,0 1358.5,-38"/>
<text text-anchor="middle" x="1249.5" y="-22.8" font-family="Helvetica,sans-Serif" font-size="14.00">⋯ Check</text>
<text text-anchor="middle" x="1249.5" y="-7.8" font-family="Helvetica,sans-Serif" font-size="14.00">cli_snake_game/test_main.py</text>
</g>
<!-- bb6bfdbc&#45;4008&#45;49bc&#45;a725&#45;94a07dccbb79&#45;&gt;9b7aa546&#45;d08b&#45;4f02&#45;9174&#45;1440eb8aa65d -->
<g id="edge7" class="edge">
<title>bb6bfdbc&#45;4008&#45;49bc&#45;a725&#45;94a07dccbb79&#45;&gt;9b7aa546&#45;d08b&#45;4f02&#45;9174&#45;1440eb8aa65d</title>
<path fill="none" stroke="black" stroke-dasharray="5,2" d="M1249.5,-74.84C1249.5,-66.3 1249.5,-56.78 1249.5,-48.1"/>
<polygon fill="black" stroke="black" points="1253,-48.05 1249.5,-38.05 1246,-48.05 1253,-48.05"/>
</g>
</g>
</svg>
