<?xml version="1.0" encoding="UTF-8" standalone="no"?>
<!DOCTYPE svg PUBLIC "-//W3C//DTD SVG 1.1//EN"
 "http://www.w3.org/Graphics/SVG/1.1/DTD/svg11.dtd">
<!-- Generated by graphviz version 2.43.0 (0)
 -->
<!-- Title: %3 Pages: 1 -->
<svg width="395pt" height="165pt"
 viewBox="0.00 0.00 395.00 164.74" xmlns="http://www.w3.org/2000/svg" xmlns:xlink="http://www.w3.org/1999/xlink">
<g id="graph0" class="graph" transform="scale(1 1) rotate(0) translate(36 128.74)">
<title>%3</title>
<polygon fill="dimgray" stroke="transparent" points="-36,36 -36,-128.74 359,-128.74 359,36 -36,36"/>
<text text-anchor="middle" x="161.5" y="-77.54" font-family="Helvetica,sans-Serif" font-size="14.00">Sweep&#39;s Plan &amp; Progress</text>
<!-- start -->
<g id="node1" class="node">
<title>start</title>
</g>
<!-- cec499b7&#45;0247&#45;40e8&#45;ae4f&#45;fb6b6681b724 -->
<g id="node3" class="node">
<title>cec499b7&#45;0247&#45;40e8&#45;ae4f&#45;fb6b6681b724</title>
<ellipse fill="#0ee832" stroke="black" cx="158.5" cy="-26.87" rx="106.13" ry="26.74"/>
<text text-anchor="middle" x="158.5" y="-30.67" font-family="Helvetica,sans-Serif" font-size="14.00">✓ Create</text>
<text text-anchor="middle" x="158.5" y="-15.67" font-family="Helvetica,sans-Serif" font-size="14.00">tests/test_snake.py</text>
</g>
<!-- start&#45;&gt;cec499b7&#45;0247&#45;40e8&#45;ae4f&#45;fb6b6681b724 -->
<g id="edge1" class="edge">
<title>start&#45;&gt;cec499b7&#45;0247&#45;40e8&#45;ae4f&#45;fb6b6681b724</title>
<path fill="none" stroke="black" d="M1.2,-26.87C4.72,-26.87 21.04,-26.87 41.93,-26.87"/>
<polygon fill="black" stroke="black" points="42.17,-30.37 52.17,-26.87 42.17,-23.37 42.17,-30.37"/>
<text text-anchor="middle" x="26.72" y="-33.67" font-family="Helvetica,sans-Serif" font-size="14.00">Start</text>
</g>
<!-- end -->
<g id="node2" class="node">
<title>end</title>
</g>
<!-- cec499b7&#45;0247&#45;40e8&#45;ae4f&#45;fb6b6681b724&#45;&gt;end -->
<g id="edge2" class="edge">
<title>cec499b7&#45;0247&#45;40e8&#45;ae4f&#45;fb6b6681b724&#45;&gt;end</title>
<path fill="none" stroke="black" d="M264.68,-26.87C283.88,-26.87 301.13,-26.87 311.69,-26.87"/>
<polygon fill="black" stroke="black" points="311.82,-30.37 321.82,-26.87 311.82,-23.37 311.82,-30.37"/>
<text text-anchor="middle" x="293.28" y="-33.67" font-family="Helvetica,sans-Serif" font-size="14.00">Finish</text>
</g>
</g>
</svg>
